<?xml version="1.0" encoding="utf-8"?>
<!-- Generator: Adobe Illustrator 23.0.2, SVG Export Plug-In . SVG Version: 6.00 Build 0)  -->
<svg version="1.1" id="Ebene_1" xmlns="http://www.w3.org/2000/svg" xmlns:xlink="http://www.w3.org/1999/xlink" x="0px"
     y="0px"
     viewBox="0 0 337 88.92" style="enable-background:new 0 0 337 88.92;" xml:space="preserve">
<style type="text/css">
	.st0{fill:#232026;}
	.st1{fill:url(#SVGID_1_);}
	.st2{fill:url(#SVGID_2_);}
	.st3{fill:url(#SVGID_3_);}
	.st4{fill:url(#SVGID_4_);}
	.st5{fill:url(#SVGID_5_);}
	.st6{fill:url(#SVGID_6_);}
	.st7{fill:url(#SVGID_7_);}
	.st8{fill:#0D86D1;}
</style>
    <g id="logo-digi-werft-color">
	<g>
		<path class="st0" d="M0,75.88h4.14c3.85,0,6.43,2.35,6.43,6.4c0,4.09-2.59,6.42-6.43,6.42H0V75.88z M4.01,87.58
			c3.16,0,5.25-1.86,5.25-5.29c0-3.41-2.12-5.27-5.25-5.27H1.26v10.56H4.01z"/>
        <path class="st0" d="M17.91,75.88h1.26V88.7h-1.26V75.88z"/>
        <path class="st0" d="M32.85,75.66c2.97,0,4.56,1.5,4.56,1.5l-0.68,0.94c0,0-1.5-1.28-3.83-1.28c-3.1,0-5.2,2.39-5.2,5.43
			c0,3.16,2.17,5.49,5.09,5.49c2.5,0,4.03-1.88,4.03-1.88v-2.17h-2.19v-1.13h3.39v6.13h-1.17v-0.97c0-0.28,0.02-0.54,0.02-0.54
			h-0.04c0,0-1.48,1.73-4.17,1.73c-3.5,0-6.28-2.83-6.28-6.64C26.39,78.58,29.16,75.66,32.85,75.66z"/>
        <path class="st0" d="M45.62,75.88h1.26V88.7h-1.26V75.88z"/>
        <path class="st0" d="M57.9,77.02h-4.61v-1.13h10.46v1.13h-4.6V88.7h-1.26L57.9,77.02L57.9,77.02z"/>
        <path class="st0" d="M75.18,84.62h-5.16l-1.46,4.09h-1.33l4.71-12.82h1.35l4.7,12.82h-1.33L75.18,84.62z M72.6,77.21
			c0,0-0.28,1.06-0.5,1.66l-1.72,4.65h4.42l-1.68-4.65c-0.22-0.6-0.49-1.66-0.49-1.66H72.6z"/>
        <path class="st0" d="M84.48,75.88h1.26v11.68h5.94v1.13h-7.2V75.88z"/>
        <path class="st0" d="M98.23,75.88h1.26V88.7h-1.26V75.88z"/>
        <path class="st0" d="M107.3,86.32c0,0,1.33,1.4,3.35,1.4c1.4,0,2.55-0.83,2.55-2.23c0-3.23-6.4-2.41-6.4-6.38
			c0-1.84,1.62-3.45,3.99-3.45c2.23,0,3.43,1.24,3.43,1.24l-0.62,1.06c0,0-1.13-1.09-2.81-1.09c-1.64,0-2.7,1.08-2.7,2.2
			c0,3.05,6.4,2.17,6.4,6.38c0,1.91-1.48,3.46-3.88,3.46c-2.62,0-4.06-1.64-4.06-1.64L107.3,86.32z"/>
        <path class="st0" d="M121.66,75.88h1.26V88.7h-1.26V75.88z"/>
        <path class="st0" d="M130.95,75.88h7.22v1.13h-5.96v4.67h4.87v1.13h-4.87v4.76h6.29v1.13h-7.55V75.88z"/>
        <path class="st0" d="M145.35,75.88h3.8c1.31,0,1.9,0.13,2.41,0.35c1.2,0.53,1.93,1.75,1.93,3.3c0,1.73-0.98,3.06-2.43,3.46v0.04
			c0,0,0.13,0.17,0.33,0.51l2.79,5.16h-1.44l-2.9-5.39h-3.23v5.39h-1.26L145.35,75.88L145.35,75.88z M149.66,82.17
			c1.55,0,2.54-1,2.54-2.61c0-1.06-0.42-1.84-1.17-2.24c-0.39-0.2-0.84-0.31-1.83-0.31h-2.59v5.16
			C146.61,82.17,149.66,82.17,149.66,82.17z"/>
        <path class="st0" d="M160.84,75.88h1.28v8.33c0,2.2,1.43,3.54,3.63,3.54c2.2,0,3.65-1.33,3.65-3.57v-8.29h1.26v8.35
			c0,2.84-1.98,4.68-4.89,4.68c-2.92,0-4.92-1.84-4.92-4.68V75.88z"/>
        <path class="st0" d="M178.6,75.88h1.22l6.54,9.23c0.44,0.64,1.06,1.73,1.06,1.73h0.04c0,0-0.11-1.06-0.11-1.73v-9.23h1.26V88.7
			h-1.22l-6.54-9.23c-0.44-0.64-1.06-1.73-1.06-1.73h-0.04c0,0,0.11,1.06,0.11,1.73v9.23h-1.26V75.88z"/>
        <path class="st0" d="M202.34,75.66c2.97,0,4.56,1.5,4.56,1.5l-0.68,0.94c0,0-1.5-1.28-3.83-1.28c-3.1,0-5.2,2.39-5.2,5.43
			c0,3.16,2.17,5.49,5.09,5.49c2.5,0,4.03-1.88,4.03-1.88v-2.17h-2.19v-1.13h3.39v6.13h-1.17v-0.97c0-0.28,0.02-0.54,0.02-0.54
			h-0.04c0,0-1.48,1.73-4.17,1.73c-3.5,0-6.28-2.83-6.28-6.64C195.89,78.58,198.66,75.66,202.34,75.66z"/>
        <path class="st0" d="M214.76,86.32c0,0,1.33,1.4,3.35,1.4c1.4,0,2.55-0.83,2.55-2.23c0-3.23-6.4-2.41-6.4-6.38
			c0-1.84,1.62-3.45,3.99-3.45c2.23,0,3.43,1.24,3.43,1.24l-0.62,1.06c0,0-1.13-1.09-2.81-1.09c-1.64,0-2.7,1.08-2.7,2.2
			c0,3.05,6.4,2.17,6.4,6.38c0,1.91-1.48,3.46-3.88,3.46c-2.62,0-4.06-1.64-4.06-1.64L214.76,86.32z"/>
        <path class="st0" d="M235.52,84.62h-5.16l-1.46,4.09h-1.33l4.7-12.82h1.35l4.7,12.82H237L235.52,84.62z M232.93,77.21
			c0,0-0.28,1.06-0.5,1.66l-1.72,4.65h4.41l-1.68-4.65c-0.22-0.6-0.5-1.66-0.5-1.66H232.93z"/>
        <path class="st0" d="M249.99,75.66c2.97,0,4.56,1.5,4.56,1.5l-0.68,0.94c0,0-1.5-1.28-3.83-1.28c-3.1,0-5.2,2.39-5.2,5.43
			c0,3.16,2.17,5.49,5.09,5.49c2.5,0,4.03-1.88,4.03-1.88v-2.17h-2.19v-1.13h3.39v6.13H254v-0.97c0-0.28,0.02-0.54,0.02-0.54h-0.04
			c0,0-1.48,1.73-4.17,1.73c-3.5,0-6.28-2.83-6.28-6.64C243.54,78.58,246.31,75.66,249.99,75.66z"/>
        <path class="st0" d="M262.74,75.88h7.22v1.13H264v4.67h4.87v1.13H264v4.76h6.29v1.13h-7.55V75.88z"/>
        <path class="st0" d="M277.14,75.88h1.22l6.54,9.23c0.44,0.64,1.06,1.73,1.06,1.73H286c0,0-0.11-1.06-0.11-1.73v-9.23h1.26V88.7
			h-1.22l-6.54-9.23c-0.44-0.64-1.06-1.73-1.06-1.73h-0.04c0,0,0.11,1.06,0.11,1.73v9.23h-1.26V75.88z"/>
        <path class="st0" d="M298.21,77.02h-4.61v-1.13h10.46v1.13h-4.6V88.7h-1.26L298.21,77.02L298.21,77.02z"/>
        <path class="st0" d="M310.41,75.88h1.28v8.33c0,2.2,1.43,3.54,3.63,3.54c2.2,0,3.65-1.33,3.65-3.57v-8.29h1.26v8.35
			c0,2.84-1.98,4.68-4.89,4.68c-2.92,0-4.92-1.84-4.92-4.68V75.88z"/>
        <path class="st0" d="M328.17,75.88h3.8c1.31,0,1.9,0.13,2.41,0.35c1.2,0.53,1.93,1.75,1.93,3.3c0,1.73-0.98,3.06-2.43,3.46v0.04
			c0,0,0.13,0.17,0.33,0.51L337,88.7h-1.44l-2.9-5.39h-3.23v5.39h-1.26L328.17,75.88L328.17,75.88z M332.48,82.17
			c1.55,0,2.54-1,2.54-2.61c0-1.06-0.42-1.84-1.17-2.24c-0.39-0.2-0.84-0.31-1.83-0.31h-2.59v5.16
			C329.43,82.17,332.48,82.17,332.48,82.17z"/>
	</g>
</g>
    <g id="Final_Anpassung">
	<g>
		<g>
			
				<linearGradient id="SVGID_1_" gradientUnits="userSpaceOnUse" x1="311.7762" y1="1675.4618" x2="311.7762"
                                y2="1673.0181" gradientTransform="matrix(1 0 0 1 0 -1623.6385)">
				<stop offset="0" style="stop-color:#232026"/>
                    <stop offset="1" style="stop-color:#413E4D"/>
			</linearGradient>
            <rect x="310.43" y="49.38" class="st1" width="2.68" height="2.46"/>

            <linearGradient id="SVGID_2_" gradientUnits="userSpaceOnUse" x1="319.6353" y1="1675.6349" x2="319.6353"
                            y2="1660.0638" gradientTransform="matrix(1 0 0 1 0 -1623.6385)">
				<stop offset="0" style="stop-color:#232026"/>
                <stop offset="1" style="stop-color:#413E4D"/>
			</linearGradient>
            <path class="st2" d="M321.82,40.7c-0.61-0.11-1.23-0.17-1.85-0.17c-1.43-0.09-2.82,0.43-3.82,1.45
				c-0.96,1.17-1.43,2.65-1.33,4.17c-0.02,0.89,0.11,1.78,0.38,2.63c0.18,0.64,0.5,1.23,0.92,1.73c0.36,0.4,0.8,0.72,1.28,0.96
				c0.4,0.22,0.83,0.37,1.28,0.46c0.35,0.06,0.72,0.09,1.08,0.09c1.28,0.11,2.54-0.28,3.54-1.08c0.74-0.68,1.17-1.64,1.16-2.64
				V36.43h-2.66v4.27H321.82z M321.82,48.51c0,0.8-0.67,1.2-2.02,1.2c-0.72,0.07-1.4-0.27-1.79-0.87c-0.42-0.9-0.6-1.89-0.52-2.87
				c-0.09-0.93,0.14-1.85,0.66-2.63c0.49-0.53,1.19-0.8,1.91-0.76c0.59,0.01,1.18,0.07,1.76,0.2V48.51z"/>

            <linearGradient id="SVGID_3_" gradientUnits="userSpaceOnUse" x1="331.2403" y1="1675.6349" x2="331.2403"
                            y2="1664.1405" gradientTransform="matrix(1 0 0 1 0 -1623.6385)">
				<stop offset="0" style="stop-color:#232026"/>
                <stop offset="1" style="stop-color:#413E4D"/>
			</linearGradient>
            <path class="st3" d="M336.21,45.96c0.05-1.39-0.39-2.75-1.25-3.84c-0.92-1.08-2.29-1.66-3.71-1.57c-1.45-0.13-2.87,0.47-3.79,1.6
				c-0.86,1.28-1.28,2.8-1.19,4.32c-0.02,0.81,0.09,1.62,0.32,2.4c0.17,0.59,0.45,1.14,0.83,1.62c0.33,0.4,0.74,0.73,1.2,0.98
				c0.42,0.24,0.87,0.41,1.35,0.5c0.46,0.09,0.93,0.13,1.39,0.12c1.46,0.03,2.91-0.31,4.2-0.99v-2.17
				c-1.18,0.57-2.47,0.86-3.79,0.87c-0.7,0-1.39-0.21-1.97-0.6c-0.57-0.48-0.9-1.2-0.87-1.94h7.21
				C336.2,47.03,336.21,46.51,336.21,45.96z M328.96,45.47c0-0.75,0.24-1.47,0.67-2.08c0.39-0.44,0.97-0.68,1.56-0.64
				c0.62-0.02,1.21,0.27,1.58,0.78c0.39,0.57,0.63,1.24,0.69,1.94H328.96z"/>
		</g>

        <linearGradient id="SVGID_4_" gradientUnits="userSpaceOnUse" x1="239.3763" y1="1675.4678" x2="239.3763"
                        y2="1638.2875" gradientTransform="matrix(1 0 0 1 0 -1623.6385)">
			<stop offset="0" style="stop-color:#232026"/>
            <stop offset="1" style="stop-color:#413E4D"/>
		</linearGradient>
        <path class="st4" d="M236.31,44.02h-14.94v-6.89h12.5v-7.81h-12.5v-6.87h16.22v29.37h9.61V39.46h3.97l6.84,12.36h19.3V37.77h13.56
			v-7.8h-13.52v-7.13h19.23v28.99h9.58v-29h10.81v-8.18h-49.24v35.68L259.73,38c2.19-0.71,4.09-2.11,5.41-3.99
			c1.43-2.16,2.14-4.72,2.03-7.3c0.17-3.44-1.33-6.75-4.03-8.87c-2.73-2.11-6.36-3.17-10.9-3.17h-46.63l-6.37,23.46l-6.63-23.46
			h-8.28l-6.61,23.46l-6.37-23.46h-9.57l11.53,37.16h8.75l6.43-21.28l6.49,21.28h8.75l8.12-26.18v26.18h24.56L236.31,44.02z
			 M256.24,30.81c-0.9,0.88-2.11,1.37-3.37,1.35h-5.65v-9.73h5.68c2.72,0.1,4.85,2.39,4.75,5.11
			C257.6,28.77,257.1,29.93,256.24,30.81z"/>
        <g>
			
				<linearGradient id="SVGID_5_" gradientUnits="userSpaceOnUse" x1="137.529" y1="77.3266" x2="152.9492"
                                y2="77.3266" gradientTransform="matrix(1 0 0 -1 0 89.8872)">
				<stop offset="0" style="stop-color:#232026"/>
                    <stop offset="1" style="stop-color:#413E4D"/>
			</linearGradient>
            <path class="st5" d="M146,25.12v-1.67c0-3.85,1.69-7.47,4.5-10.1c1.5-1.41,2.45-3.41,2.45-5.64c0-4.44-3.76-8.01-8.27-7.69
				c-3.8,0.27-6.87,3.35-7.13,7.14c-0.17,2.39,0.76,4.57,2.34,6.09c2.68,2.59,4.24,6.13,4.24,9.85v2.02c0.33-0.03,0.66-0.06,1-0.06
				C145.41,25.07,145.71,25.09,146,25.12z M139.52,7.7c0-3.16,2.56-5.72,5.72-5.72c3.16,0,5.72,2.56,5.72,5.72s-2.56,5.72-5.72,5.72
				C142.08,13.41,139.52,10.85,139.52,7.7z"/>

            <linearGradient id="SVGID_6_" gradientUnits="userSpaceOnUse" x1="-1515.3773" y1="-2517.0732" x2="-1505.0142"
                            y2="-2517.0732"
                            gradientTransform="matrix(0.7071 -0.7071 -0.7071 -0.7071 -579.2963 -2825.7595)">
				<stop offset="0" style="stop-color:#232026"/>
                <stop offset="1" style="stop-color:#413E4D"/>
			</linearGradient>
            <path class="st6" d="M138.9,27.44l-0.61-0.61c-1.83-1.83-2.75-4.35-2.66-6.94c0.05-1.39-0.46-2.78-1.51-3.84
				c-2.11-2.11-5.59-2.02-7.58,0.28c-1.68,1.93-1.68,4.85,0.01,6.79c1.06,1.21,2.54,1.81,4.01,1.79c2.5-0.05,4.92,0.9,6.69,2.67
				l0.77,0.77C138.29,28.01,138.58,27.71,138.9,27.44z M132.72,21.98c-1.26,1.26-3.3,1.26-4.56,0s-1.26-3.3,0-4.56
				c1.26-1.26,3.3-1.26,4.56,0C133.98,18.68,133.98,20.72,132.72,21.98z"/>

            <linearGradient id="SVGID_7_" gradientUnits="userSpaceOnUse" x1="-6128.9067" y1="4076.7463" x2="-6118.5381"
                            y2="4076.7463"
                            gradientTransform="matrix(-0.7071 0.7071 0.7071 0.7071 -7054.9839 1494.1897)">
				<stop offset="0" style="stop-color:#232026"/>
                <stop offset="1" style="stop-color:#413E4D"/>
			</linearGradient>
            <path class="st7" d="M163.95,45.57c-1.06-1.21-2.54-1.81-4.01-1.79c-2.5,0.05-4.92-0.9-6.69-2.67l-0.8-0.8
				c-0.27,0.33-0.55,0.64-0.86,0.94l0.61,0.61c1.83,1.83,2.75,4.35,2.66,6.94c-0.05,1.39,0.46,2.78,1.51,3.84
				c2.11,2.11,5.59,2.02,7.58-0.28C165.63,50.43,165.63,47.51,163.95,45.57z M162.38,51.32c-1.29,1.29-3.39,1.29-4.68,0
				c-1.29-1.29-1.29-3.39,0-4.68c1.29-1.29,3.39-1.29,4.68,0C163.67,47.93,163.67,50.03,162.38,51.32z"/>
            <path class="st8" d="M146,25.12c-0.29-0.02-0.58-0.05-0.88-0.05c-0.34,0-0.67,0.02-1,0.06c-1.99,0.21-3.79,1.05-5.21,2.31
				c-0.31,0.28-0.61,0.57-0.89,0.9c-1.29,1.5-2.12,3.4-2.26,5.5h-1.02c-3.22,0-6.24-1.42-8.45-3.77c-1.18-1.26-2.85-2.05-4.72-2.05
				c-3.72,0-6.7,3.14-6.43,6.92c0.22,3.18,2.8,5.75,5.98,5.97c2,0.14,3.83-0.64,5.09-1.95c2.17-2.24,5.13-3.54,8.24-3.54h1.31
				c0.45,4.48,4.05,8.03,8.55,8.41v1.29c0,3.22-1.41,6.24-3.77,8.45c-1.26,1.18-2.05,2.85-2.05,4.72c0,3.72,3.14,6.7,6.92,6.43
				c3.18-0.22,5.75-2.8,5.97-5.98c0.14-2-0.64-3.83-1.95-5.09c-2.24-2.17-3.54-5.13-3.54-8.24v-1.57c2.2-0.18,4.2-1.13,5.7-2.57
				c0.31-0.29,0.59-0.61,0.86-0.94c1.28-1.61,2.06-3.64,2.06-5.85C154.5,29.58,150.77,25.57,146,25.12z M121.56,38.9
				c-2.45,0-4.43-1.98-4.43-4.43c0-2.45,1.98-4.43,4.43-4.43c2.45,0,4.43,1.98,4.43,4.43C125.99,36.92,124,38.9,121.56,38.9z
				 M149.45,58.29c0,2.49-2.02,4.5-4.5,4.5c-2.49,0-4.5-2.02-4.5-4.5s2.02-4.5,4.5-4.5C147.44,53.78,149.45,55.8,149.45,58.29z
				 M145.11,41.85c-4.08,0-7.38-3.31-7.38-7.38s3.31-7.38,7.38-7.38c4.08,0,7.38,3.31,7.38,7.38S149.19,41.85,145.11,41.85z"/>
            <path class="st8" d="M145.11,29.06c-2.99,0-5.41,2.43-5.41,5.41s2.43,5.41,5.41,5.41c2.99,0,5.41-2.43,5.41-5.41
				S148.1,29.06,145.11,29.06z"/>
		</g>
        <g>
			<path class="st8" d="M0.06,46.73h4.46V19.86H0.06v-5.19h16.08c2.62-0.11,5.24,0.18,7.78,0.86c7.22,2.15,12.05,8.56,12.05,17.73
				s-4.46,15.2-11.55,17.5c-2.66,0.83-5.45,1.2-8.24,1.09H0.06V46.73z M15.89,46.38c2.07,0.09,4.13-0.23,6.08-0.94
				c4.25-1.75,6.91-6.08,6.91-12.16S26.05,22.7,21.72,21c-1.87-0.65-3.85-0.94-5.83-0.83h-4.51v26.22L15.89,46.38L15.89,46.38z"/>
            <path class="st8" d="M38.9,46.73h4.46V19.86H38.9v-5.19h15.8v5.19h-4.48v26.87h4.48v5.06H38.9V46.73z"/>
            <path class="st8" d="M75.92,14.03c6.66,0,14.57,2.54,14.57,7.35v5.06h-6.23v-2.66c0-2.54-4.03-3.87-8.03-3.87
				c-6.61-0.48-12.37,4.49-12.85,11.1c-0.05,0.61-0.04,1.23,0.01,1.84c0,7.98,5.06,13.78,13.17,13.78c2.99,0,8.54-0.79,8.54-3.87
				v-3.98h-6.76v-5.06h12.99v11.22c0,5.65-9.95,7.6-15.45,7.6c-10.42,0.39-19.2-7.74-19.6-18.16c-0.02-0.41-0.02-0.83-0.01-1.24
				C56.27,22.07,64.34,14.03,75.92,14.03z"/>
            <path class="st8" d="M95.34,46.73h4.46V19.86h-4.46v-5.19h15.83v5.19h-4.51v26.87h4.51v5.06H95.34V46.73z"/>
		</g>
	</g>
</g>
</svg>
